HIERARCHY
ROOT Hip
{
 OFFSET 0.0000 0.0000 0.0000
 CHANNELS 6 Xposition Yposition Zposition Xrotation Yrotation Zrotation
 JOINT LowerSpine
 {
  OFFSET 0.0000 9.5388 -5.6780
  CHANNELS 3 Xrotation Yrotation Zrotation
  JOINT MiddleSpine
  {
   OFFSET 0.0000 8.7049 0.4092
   CHANNELS 3 Xrotation Yrotation Zrotation
   JOINT Chest
   {
    OFFSET 0.0000 10.7713 -2.1578
    CHANNELS 3 Xrotation Yrotation Zrotation
    JOINT Neck
    {
     OFFSET 0.0000 24.2727 -0.4543
     CHANNELS 3 Xrotation Yrotation Zrotation
     JOINT Head
     {
      OFFSET 0.0000 13.7071 3.7283
      CHANNELS 3 Xrotation Yrotation Zrotation
      End Site
      {
       OFFSET 0.0001 19.1523 0.5717
      }
     }
    }
    JOINT LClavicle
    {
     OFFSET 2.2055 23.4243 7.2228
     CHANNELS 3 Xrotation Yrotation Zrotation
     JOINT LShoulder
     {
      OFFSET 12.8847 3.3599 -5.4366
      CHANNELS 3 Xrotation Yrotation Zrotation
      JOINT LForearm
      {
       OFFSET 30.4107 -0.1080 -0.2635
       CHANNELS 3 Xrotation Yrotation Zrotation
       JOINT LHand
       {
        OFFSET 25.3689 0.0736 -0.1519
        CHANNELS 3 Xrotation Yrotation Zrotation
        JOINT LFinger1
        {
         OFFSET 9.8322 0.8599 2.7309
         CHANNELS 3 Xrotation Yrotation Zrotation
         JOINT LFinger11
         {
          OFFSET 3.6778 -0.8968 0.6480
          CHANNELS 3 Xrotation Yrotation Zrotation
          JOINT LFinger12
          {
           OFFSET 2.5107 -0.6125 0.4426
           CHANNELS 3 Xrotation Yrotation Zrotation
           End Site
           {
            OFFSET 1.7866 -0.5333 0.2898
           }
          }
         }
        }
        JOINT LFinger2
        {
         OFFSET 9.9790 0.9930 0.2378
         CHANNELS 3 Xrotation Yrotation Zrotation
         JOINT LFinger21
         {
          OFFSET 4.5474 0.0127 -0.0269
          CHANNELS 3 Xrotation Yrotation Zrotation
          JOINT LFinger22
          {
           OFFSET 2.5205 0.0077 -0.0153
           CHANNELS 3 Xrotation Yrotation Zrotation
           End Site
           {
            OFFSET 2.2640 -0.1599 0.0030
           }
          }
         }
        }
        JOINT LFinger3
        {
         OFFSET 9.4572 0.6626 -2.2373
         CHANNELS 3 Xrotation Yrotation Zrotation
         JOINT LFinger31
         {
          OFFSET 4.1262 -0.2089 -0.2583
          CHANNELS 3 Xrotation Yrotation Zrotation
          JOINT LFinger32
          {
           OFFSET 2.3513 -0.1183 -0.1478
           CHANNELS 3 Xrotation Yrotation Zrotation
           End Site
           {
            OFFSET 2.0790 -0.2556 -0.0983
           }
          }
         }
        }
        JOINT LFinger4
        {
         OFFSET 8.7759 -0.6670 -3.8640
         CHANNELS 3 Xrotation Yrotation Zrotation
         JOINT LFinger41
         {
          OFFSET 2.5380 -0.5293 -0.7006
          CHANNELS 3 Xrotation Yrotation Zrotation
          JOINT LFinger42
          {
           OFFSET 1.8611 -0.3876 -0.5141
           CHANNELS 3 Xrotation Yrotation Zrotation
           End Site
           {
            OFFSET 1.6519 -0.4539 -0.3790
           }
          }
         }
        }
        JOINT LFinger0
        {
         OFFSET 2.0339 -1.5395 1.5419
         CHANNELS 3 Xrotation Yrotation Zrotation
         JOINT LFinger01
         {
          OFFSET 3.7868 -1.2438 2.8551
          CHANNELS 3 Xrotation Yrotation Zrotation
          JOINT LFinger02
          {
           OFFSET 2.4936 -0.8922 1.7966
           CHANNELS 3 Xrotation Yrotation Zrotation
           End Site
           {
            OFFSET 1.8337 -0.6312 1.2556
           }
          }
         }
        }
       }
      }
     }
    }
    JOINT RClavicle
    {
     OFFSET -2.2055 23.4243 7.2228
     CHANNELS 3 Xrotation Yrotation Zrotation
     JOINT RShoulder
     {
      OFFSET -12.8870 3.3605 -5.4375
      CHANNELS 3 Xrotation Yrotation Zrotation
      JOINT RForearm
      {
       OFFSET -30.4107 -0.1080 -0.2635
       CHANNELS 3 Xrotation Yrotation Zrotation
       JOINT RHand
       {
        OFFSET -25.3689 0.0736 -0.1519
        CHANNELS 3 Xrotation Yrotation Zrotation
        JOINT RFinger1
        {
         OFFSET -9.8322 0.8599 2.7309
         CHANNELS 3 Xrotation Yrotation Zrotation
         JOINT RFinger11
         {
          OFFSET -3.6778 -0.8968 0.6480
          CHANNELS 3 Xrotation Yrotation Zrotation
          JOINT RFinger12
          {
           OFFSET -2.5107 -0.6125 0.4426
           CHANNELS 3 Xrotation Yrotation Zrotation
           End Site
           {
            OFFSET -1.7866 -0.5333 0.2898
           }
          }
         }
        }
        JOINT RFinger2
        {
         OFFSET -9.9790 0.9930 0.2378
         CHANNELS 3 Xrotation Yrotation Zrotation
         JOINT RFinger21
         {
          OFFSET -4.5474 0.0127 -0.0269
          CHANNELS 3 Xrotation Yrotation Zrotation
          JOINT RFinger22
          {
           OFFSET -2.5205 0.0077 -0.0153
           CHANNELS 3 Xrotation Yrotation Zrotation
           End Site
           {
            OFFSET -2.2640 -0.1599 0.0030
           }
          }
         }
        }
        JOINT RFinger3
        {
         OFFSET -9.4572 0.6626 -2.2373
         CHANNELS 3 Xrotation Yrotation Zrotation
         JOINT RFinger31
         {
          OFFSET -4.1262 -0.2089 -0.2583
          CHANNELS 3 Xrotation Yrotation Zrotation
          JOINT RFinger32
          {
           OFFSET -2.3513 -0.1183 -0.1478
           CHANNELS 3 Xrotation Yrotation Zrotation
           End Site
           {
            OFFSET -2.0790 -0.2556 -0.0983
           }
          }
         }
        }
        JOINT RFinger4
        {
         OFFSET -8.7759 -0.6670 -3.8640
         CHANNELS 3 Xrotation Yrotation Zrotation
         JOINT RFinger41
         {
          OFFSET -2.5380 -0.5293 -0.7006
          CHANNELS 3 Xrotation Yrotation Zrotation
          JOINT RFinger42
          {
           OFFSET -1.8611 -0.3876 -0.5141
           CHANNELS 3 Xrotation Yrotation Zrotation
           End Site
           {
            OFFSET -1.6519 -0.4539 -0.3790
           }
          }
         }
        }
        JOINT RFinger0
        {
         OFFSET -2.0339 -1.5395 1.5419
         CHANNELS 3 Xrotation Yrotation Zrotation
         JOINT RFinger01
         {
          OFFSET -3.7869 -1.2438 2.8551
          CHANNELS 3 Xrotation Yrotation Zrotation
          JOINT RFinger02
          {
           OFFSET -2.4936 -0.8922 1.7966
           CHANNELS 3 Xrotation Yrotation Zrotation
           End Site
           {
            OFFSET -1.8337 -0.6312 1.2556
           }
          }
         }
        }
       }
      }
     }
    }
   }
  }
 }
 JOINT RThigh
 {
  OFFSET -11.2783 4.3118 -0.9252
  CHANNELS 3 Xrotation Yrotation Zrotation
  JOINT RShin
  {
   OFFSET -0.8165 -44.3834 0.0000
   CHANNELS 3 Xrotation Yrotation Zrotation
   JOINT RFoot
   {
    OFFSET 0.0000 -43.5818 0.0000
    CHANNELS 3 Xrotation Yrotation Zrotation
    JOINT RToe
    {
     OFFSET 0.0000 -4.7900 10.0166
     CHANNELS 3 Xrotation Yrotation Zrotation
     End Site
     {
      OFFSET 0.0000 0.0000 6.7197
     }
    }
   }
  }
 }
 JOINT LThigh
 {
  OFFSET 11.2782 4.3121 -0.9252
  CHANNELS 3 Xrotation Yrotation Zrotation
  JOINT LShin
  {
   OFFSET 0.8166 -44.3837 0.0000
   CHANNELS 3 Xrotation Yrotation Zrotation
   JOINT LFoot
   {
    OFFSET 0.0000 -43.5818 0.0000
    CHANNELS 3 Xrotation Yrotation Zrotation
    JOINT LToe
    {
     OFFSET 0.0000 -4.7900 10.0166
     CHANNELS 3 Xrotation Yrotation Zrotation
     End Site
     {
      OFFSET 0.0000 0.0000 6.7197
     }
    }
   }
  }
 }
}
MOTION
Frames: 4
Frame Time: 0.0333333000
 107.6689 101.5599 79.2545 239.941400 241.848200 -108.541500 1.265551 -5.124388 -4.375474 1.265551 -5.124388 -4.375474 1.265551 -5.124388 -4.375474 0.000000 0.000000 0.000000 0.000000 0.000000 0.000000 -0.025273 -0.189399 -13.887760 1.257255 -27.817090 -55.632450 -7.932376 -35.034090 0.003288 -19.403760 0.882057 -4.932819 0.000000 0.000000 0.000000 0.000000 0.000000 0.000000 0.000000 0.000000 0.000000 0.000000 0.000000 0.000000 0.000000 0.000000 0.000000 0.000000 0.000000 0.000000 0.000000 0.000000 0.000000 0.000000 0.000000 0.000000 0.000000 0.000000 0.000000 0.000000 0.000000 0.000000 0.000000 0.000000 0.000000 0.000000 0.000000 0.000000 0.000000 0.000000 0.000000 0.000000 0.000000 0.000000 0.000000 -0.312464 0.000000 0.023329 0.035957 6.812403 -194.685800 69.845330 226.182100 29.383310 20.272850 5.431212 83.516100 -19.117880 -18.770550 0.000000 0.000000 0.000000 0.000000 0.000000 0.000000 0.000000 0.000000 0.000000 0.000000 0.000000 31.806950 0.000000 0.000000 0.000000 0.000000 0.000000 0.000000 0.000000 0.000000 0.000000 0.000000 0.000000 0.000000 0.000000 0.000000 0.000000 0.000000 0.000000 0.000000 0.000000 0.000000 0.000000 0.000000 0.000000 0.000000 0.000000 0.000000 0.000000 0.000000 0.000000 0.000000 0.000000 0.000000 0.000000 -23.970260 4.814551 -21.556700 3.527831 -3.662030 -3.654219 -0.560862 3.598379 1.742556 -0.000001 0.000000 0.000000 -35.107170 4.531525 -15.988820 22.779770 0.340675 -0.430987 -0.020729 -1.132244 -0.542037 -0.000045 0.000000 0.000000
 107.0895 101.6052 79.2907 239.130700 243.916000 -108.834600 1.391822 -5.150527 -4.414442 1.391822 -5.150527 -4.414442 1.391822 -5.150527 -4.414442 0.000000 0.000000 0.000000 0.000000 0.000000 0.000000 -0.022157 -0.165474 -13.940470 2.576202 -30.230210 -56.310810 -5.731517 -35.316590 -0.039443 -17.453770 0.626110 -4.501847 0.000000 0.000000 0.000000 0.000000 0.000000 0.000000 0.000000 0.000000 0.000000 0.000000 0.000000 0.000000 0.000000 0.000000 0.000000 0.000000 0.000000 0.000000 0.000000 0.000000 0.000000 0.000000 0.000000 0.000000 0.000000 0.000000 0.000000 0.000000 0.000000 0.000000 0.000000 0.000000 0.000000 0.000000 0.000000 0.000000 0.000000 0.000000 0.000000 0.000000 0.000000 0.000000 0.000000 -0.312464 0.000000 0.020457 0.031575 6.887718 -206.328400 67.489760 237.586500 31.238260 24.358650 1.251750 83.516100 -19.117880 -18.770550 0.000000 0.000000 0.000000 0.000000 0.000000 0.000000 0.000000 0.000000 0.000000 0.000000 0.000000 31.806950 0.000000 0.000000 0.000000 0.000000 0.000000 0.000000 0.000000 0.000000 0.000000 0.000000 0.000000 0.000000 0.000000 0.000000 0.000000 0.000000 0.000000 0.000000 0.000000 0.000000 0.000000 0.000000 0.000000 0.000000 0.000000 0.000000 0.000000 0.000000 0.000000 0.000000 0.000000 0.000000 0.000000 -21.153920 4.277418 -21.743270 3.797248 -3.652807 -3.741488 -1.600317 2.874139 1.428134 -0.000001 0.000000 0.000000 -32.668130 4.316339 -16.353690 22.331950 0.379570 -0.234109 0.093980 -0.853365 -0.406684 -0.000045 0.000000 0.000000
 106.0041 101.7313 79.2049 238.566600 246.777800 -109.046800 1.517308 -5.166895 -4.450885 1.517308 -5.166895 -4.450885 1.517308 -5.166895 -4.450885 0.000000 0.000000 0.000000 0.000000 0.000000 0.000000 -0.019317 -0.143646 -13.993970 6.459926 -35.271690 -55.328870 0.027981 -35.999360 -0.142799 -13.548570 0.151594 -3.591009 0.000000 0.000000 0.000000 0.000000 0.000000 0.000000 0.000000 0.000000 0.000000 0.000000 0.000000 0.000000 0.000000 0.000000 0.000000 0.000000 0.000000 0.000000 0.000000 0.000000 0.000000 0.000000 0.000000 0.000000 0.000000 0.000000 0.000000 0.000000 0.000000 0.000000 0.000000 0.000000 0.000000 0.000000 0.000000 0.000000 0.000000 0.000000 0.000000 0.000000 0.000000 0.000000 0.000000 -0.312464 0.000000 0.017840 0.027496 6.964095 -209.438400 71.603780 241.766400 28.643090 30.145770 -0.062620 83.516100 -19.117880 -18.770550 0.000000 0.000000 0.000000 0.000000 0.000000 0.000000 0.000000 0.000000 0.000000 0.000000 0.000000 31.806950 0.000000 0.000000 0.000000 0.000000 0.000000 0.000000 0.000000 0.000000 0.000000 0.000000 0.000000 0.000000 0.000000 0.000000 0.000000 0.000000 0.000000 0.000000 0.000000 0.000000 0.000000 0.000000 0.000000 0.000000 0.000000 0.000000 0.000000 0.000000 0.000000 0.000000 0.000000 0.000000 0.000000 -17.705330 3.533758 -21.568460 3.612803 -3.637823 -4.063116 -1.619392 3.270016 1.619626 -0.000001 0.000000 0.000000 -29.149560 3.855819 -16.406960 21.497010 0.408837 -0.075420 0.037478 -0.389963 -0.186847 -0.000045 0.000000 0.000000
 104.4335 101.9635 78.8405 238.537100 250.217300 -109.038400 1.649663 -5.185503 -4.492825 1.649663 -5.185503 -4.492825 1.649663 -5.185503 -4.492825 0.000000 0.000000 0.000000 0.000000 0.000000 0.000000 -0.016859 -0.123911 -14.048030 12.265020 -41.028280 -52.635110 7.485769 -36.623660 -0.160436 -8.657078 -0.359311 -2.377503 0.000000 0.000000 0.000000 0.000000 0.000000 0.000000 0.000000 0.000000 0.000000 0.000000 0.000000 0.000000 0.000000 0.000000 0.000000 0.000000 0.000000 0.000000 0.000000 0.000000 0.000000 0.000000 0.000000 0.000000 0.000000 0.000000 0.000000 0.000000 0.000000 0.000000 0.000000 0.000000 0.000000 0.000000 0.000000 0.000000 0.000000 0.000000 0.000000 0.000000 0.000000 0.000000 0.000000 -0.312464 0.000000 0.015508 0.023580 7.040710 -215.927400 78.358350 249.493700 24.650560 38.917740 -0.200823 83.516100 -19.117880 -18.770550 0.000000 0.000000 0.000000 0.000000 0.000000 0.000000 0.000000 0.000000 0.000000 0.000000 0.000000 31.806950 0.000000 0.000000 0.000000 0.000000 0.000000 0.000000 0.000000 0.000000 0.000000 0.000000 0.000000 0.000000 0.000000 0.000000 0.000000 0.000000 0.000000 0.000000 0.000000 0.000000 0.000000 0.000000 0.000000 0.000000 0.000000 0.000000 0.000000 0.000000 0.000000 0.000000 0.000000 0.000000 0.000000 -14.165980 2.740462 -21.018800 3.669221 -3.622279 -4.039756 -0.702878 4.128625 2.006542 -0.000001 0.000000 0.000000 -24.821230 3.189210 -15.973920 20.322730 0.451679 0.150529 -0.102584 0.136835 0.064604 -0.000045 0.000000 0.000000
